<?xml version="1.0" encoding="UTF-8"?>
<svg width="37px" height="37px" viewBox="0 0 37 37" version="1.1" xmlns="http://www.w3.org/2000/svg" xmlns:xlink="http://www.w3.org/1999/xlink">
    <!-- Generator: Sketch 42 (36781) - http://www.bohemiancoding.com/sketch -->
    <title>ic-close</title>
    <desc>Created with Sketch.</desc>
    <defs></defs>
    <g id="Icon" stroke="none" stroke-width="1" fill="none" fill-rule="evenodd">
        <g id="Apple-Watch-42mm" transform="translate(-144.000000, -28.000000)" fill="#FFFFFF">
            <path d="M165.498028,46.5489272 L179.294431,32.7525239 C179.797427,32.2495278 180.048924,31.6746848 180.048925,31.027977 C180.04892,30.3812621 179.797427,29.8064193 179.294431,29.3034231 C178.791435,28.800427 178.216592,28.5489342 177.569877,28.5489289 C176.923169,28.5489303 176.348326,28.800427 175.84533,29.3034231 L162.048927,43.0998264 L148.252524,29.3034231 C147.749528,28.800427 147.174683,28.5489323 146.527973,28.5489323 C145.881264,28.5489321 145.306419,28.800427 144.803423,29.3034231 C144.300427,29.8064193 144.048932,30.3812642 144.048932,31.0279735 C144.048932,31.6746829 144.300427,32.2495278 144.803423,32.7525239 L158.599826,46.5489272 L144.803423,60.3453304 C144.300427,60.8483266 144.048932,61.4231675 144.048925,62.0698808 C144.048932,62.7165941 144.300427,63.291435 144.803423,63.7944312 C145.306419,64.2974274 145.88126,64.548922 146.527973,64.5489289 C147.174687,64.548922 147.749528,64.2974274 148.252524,63.7944312 L162.048927,49.998028 L175.84533,63.7944312 C176.348326,64.2974274 176.923169,64.5489201 177.569884,64.5489254 C178.216592,64.5489241 178.791435,64.2974274 179.294431,63.7944312 C179.797427,63.291435 180.048924,62.716592 180.048925,62.0698842 C180.04892,61.4231696 179.797427,60.8483266 179.294431,60.3453304 L165.498028,46.5489272 Z" id="ic-close"></path>
        </g>
    </g>
</svg>