<?xml version="1.0" encoding="UTF-8"?>
<svg width="16px" height="94px" viewBox="0 0 16 94" version="1.1" xmlns="http://www.w3.org/2000/svg" xmlns:xlink="http://www.w3.org/1999/xlink">
    <!-- Generator: Sketch 42 (36781) - http://www.bohemiancoding.com/sketch -->
    <title>ic-logo</title>
    <desc>Created with Sketch.</desc>
    <defs></defs>
    <g id="Design" stroke="none" stroke-width="1" fill="none" fill-rule="evenodd">
        <g id="Desktop" transform="translate(-22.000000, -81.000000)" fill="#FFFFFF">
            <path d="M65.2558009,120.017073 C65.3864136,120.017073 65.4952558,120.022561 65.582331,120.033537 C65.6694061,120.044512 65.7474097,120.066463 65.8163442,120.09939 C65.8852787,120.132317 65.9523981,120.179878 66.0177044,120.242073 C66.0830108,120.304269 66.1555723,120.386585 66.2353912,120.489024 L74.4966026,131.102439 C74.4675776,130.84634 74.4476231,130.595733 74.4367387,130.35061 C74.4258544,130.105487 74.4204122,129.87683 74.4204122,129.664634 L74.4204122,120.017073 L77,120.017073 L77,135.887805 L75.4870772,135.887805 C75.2548769,135.887805 75.0625889,135.85122 74.9102074,135.778049 C74.7578259,135.704878 74.6090748,135.573172 74.4639496,135.382927 L66.2353912,124.813415 C66.2571599,125.047562 66.2734863,125.279877 66.2843707,125.510366 C66.2952551,125.740855 66.3006972,125.951219 66.3006972,126.141463 L66.3006972,135.887805 L63.7211094,135.887805 L63.7211094,120.017073 L65.2558009,120.017073 Z M20.148601,122.572358 L13.2781711,122.572358 C12.1982661,122.572358 11.6024565,122.611382 10.9321706,122.689431 L10.9321706,120 C11.6210755,120.078049 12.2913614,120.117073 13.2781711,120.117073 L21.1726488,120.117073 C21.973268,120.117073 22.4573633,120.097561 22.9973158,120.019512 L24.6098236,121.853659 C22.7292994,123.02439 20.010918,125.073171 17.7580128,127.02439 C14.7044884,129.678049 13.1777262,131.144715 13.1777262,132.217886 C13.1777262,132.744715 13.4942501,133.076423 14.0528216,133.213008 C14.7789646,133.369106 15.5310763,133.466667 16.890267,133.466667 C19.2735056,133.466667 20.3906486,133.388618 21.6753632,133.134959 C22.699411,132.939837 23.071792,132.647154 23.3138397,131.866667 C23.5000302,131.281301 23.5558873,130.965854 23.5745064,129.463415 C24.3378875,129.912195 25.0267924,130.165854 25.8087925,130.302439 C25.5295067,132.8 25.4922686,132.97561 25.2129829,133.658537 C24.7847447,134.712195 23.9282683,135.336585 22.5876967,135.609756 C21.4519345,135.843902 19.441077,136 17.7839815,136 C15.5683144,136 13.9298379,135.882927 12.8499329,135.629268 C11.2859326,135.278049 10.5225515,134.380488 10.5225515,132.956098 C10.5225515,131.141463 11.8445041,129.170732 14.9352666,126.419512 C16.4806479,125.034146 18.4542673,123.821138 20.148601,122.572358 Z M58.4639749,120.017073 L58.4639749,122.365854 L51.4871152,122.365854 L51.4871152,126.767073 L56.9837051,126.767073 L56.9837051,129.039024 L51.4871152,129.039024 L51.4871152,133.528049 L58.4639749,133.528049 L58.4639749,135.887805 L48.53746,135.887805 L48.53746,120.017073 L58.4639749,120.017073 Z M42.8405654,135.887805 L39.8909102,135.887805 L39.8909102,128.95122 L32.5113301,128.95122 L32.5113301,135.887805 L29.5616749,135.887805 L29.5616749,120.017073 L32.5113301,120.017073 L32.5113301,126.843902 L39.8909102,126.843902 L39.8909102,120.017073 L42.8405654,120.017073 L42.8405654,135.887805 Z M5.13435398,135.887805 L2.19558311,135.887805 L2.19558311,120.017073 L5.13435398,120.017073 L5.13435398,135.887805 Z M-7.73138276,129.719512 L-7.73138276,135.887805 L-10.6592693,135.887805 L-10.6592693,129.719512 L-17,120.017073 L-14.4204122,120.017073 C-14.1664431,120.017073 -13.9650849,120.079268 -13.8163316,120.203659 C-13.6675782,120.328049 -13.5424096,120.485365 -13.440822,120.67561 L-9.95178741,125.976829 C-9.78489341,126.291465 -9.63977038,126.589633 -9.51641395,126.871341 C-9.39305752,127.15305 -9.28058716,127.429267 -9.17899952,127.7 C-9.08466813,127.42195 -8.97763989,127.142075 -8.85791159,126.860366 C-8.73818329,126.578657 -8.59487429,126.284148 -8.42798029,125.976829 L-4.96071442,120.67561 C-4.88089556,120.514633 -4.76116905,120.364635 -4.60153132,120.22561 C-4.44189358,120.086585 -4.23872133,120.017073 -3.99200847,120.017073 L-1.40153638,120.017073 L-7.73138276,129.719512 Z" id="ic-logo" transform="translate(30.000000, 128.000000) rotate(-90.000000) translate(-30.000000, -128.000000) "></path>
        </g>
    </g>
</svg>